<?xml version="1.0" encoding="UTF-8"?>
<svg id="Layer_2" data-name="Layer 2" xmlns="http://www.w3.org/2000/svg" viewBox="0 0 438.69 193.26">
  <g id="Layer_1-2" data-name="Layer 1">
    <g>
      <path d="M405.38,8.76c51.6,30.54,44.83,123.94-31.37,131.3-54.48,5.26-125.56-34.04-165.71-54.32,25.88,9.16,82.48,36.32,128.49,36.23,50.46-.09,72.6-23.61,72.07-51.75-.37-19.68-17.54-44.57-58.6-48.63C243.14,10.99,135.12,143.51,39.36,122.45c-50.19-11.04-52.29-67.05-6.83-84.35,50.88-19.36,108.09,6.18,130.73,19.84-48.61-22.99-131.91-23.52-134.28,3.94-1.81,20.96,46.34,12.22,80.67,15.5-34.2,2.5-85.51-1.05-80.43,20.67,4.48,19.16,55.01,11.77,66.9,9.29C198.87,85.88,268.37-5.82,378.34.29c7.93.44,19.49,4,27.04,8.47Z"/>
      <g>
        <path d="M40.86,162.32v12.62h7c1.03,0,1.86-.09,2.5-.28.63-.19,1.13-.47,1.49-.84.36-.37.62-.86.76-1.44.14-.59.23-1.28.28-2.07h.88v11.11h-.88c-.12-.91-.25-1.68-.4-2.29-.15-.61-.4-1.1-.74-1.46-.34-.36-.81-.62-1.42-.77-.61-.15-1.43-.23-2.46-.23h-7v10.55c0,.8.01,1.43.04,1.9.02.47.12.83.28,1.07.16.25.42.4.77.47s.87.11,1.55.11h5.41c.91,0,1.69-.02,2.32-.07.63-.05,1.18-.14,1.63-.28s.86-.33,1.21-.58.73-.56,1.12-.93c.94-.91,1.93-2.38,2.99-4.39h.95l-2.78,8.02h-24.61v-.88h1.12c.3,0,.62-.04.95-.11.33-.07.64-.17.93-.3.29-.13.56-.3.79-.51.23-.21.4-.46.49-.74.19-.52.28-1.55.28-3.09v-20.74c0-2.04-.2-3.29-.6-3.76-.56-.63-1.51-.95-2.85-.95h-1.12v-.88h24.61v7h-.56c-.23-1.15-.49-2.07-.76-2.76-.27-.69-.63-1.22-1.07-1.6-.45-.37-1.01-.62-1.71-.72-.69-.11-1.58-.16-2.65-.16h-8.75Z"/>
        <path d="M94.23,177.58v9.28c0,2.04.22,3.29.67,3.76.61.68,1.51,1.02,2.71,1.02h1.23v.88h-13.68v-.88h1.2c1.34,0,2.3-.43,2.88-1.3.33-.52.49-1.68.49-3.48v-20.64c0-1.99-.21-3.23-.63-3.73-.63-.7-1.55-1.05-2.74-1.05h-1.2v-.88h11.71c2.81,0,5.06.3,6.75.91.82.28,1.59.67,2.3,1.18.71.5,1.34,1.1,1.86,1.79.53.69.94,1.45,1.25,2.29.3.83.46,1.73.46,2.69,0,1.29-.22,2.47-.67,3.55-.45,1.08-1.09,2-1.93,2.78s-1.88,1.38-3.09,1.81c-1.22.43-2.61.65-4.18.65s-3.32-.21-5.38-.63ZM94.23,176.2c.84.16,1.58.29,2.21.37.63.08,1.18.12,1.65.12.82,0,1.59-.17,2.32-.51.73-.34,1.37-.81,1.92-1.41.55-.6.98-1.32,1.3-2.16s.47-1.76.47-2.74c0-1.17-.18-2.21-.53-3.13s-.83-1.69-1.44-2.32c-.61-.63-1.32-1.11-2.14-1.44-.82-.33-1.71-.49-2.67-.49-.8,0-1.83.14-3.09.42v13.29Z"/>
        <path d="M155.61,159.86v11.04h-.88c-.4-2.98-1.37-5.25-2.92-6.82-1.55-1.57-3.52-2.36-5.91-2.36-.82,0-1.57.14-2.25.42-.68.28-1.28.65-1.79,1.11-.52.46-.91.98-1.2,1.56-.28.59-.42,1.2-.42,1.83,0,.59.12,1.14.35,1.67.23.53.96,1.35,2.18,2.48,2.04,1.29,3.85,2.36,5.45,3.2,1.5.82,3.53,2.06,6.08,3.73,1.1.84,1.95,1.85,2.53,3.01.59,1.16.88,2.37.88,3.64,0,1.2-.25,2.33-.74,3.41-.49,1.08-1.18,2.02-2.06,2.83s-1.94,1.45-3.18,1.93c-1.24.48-2.6.72-4.08.72-.94,0-1.81-.07-2.6-.21-.14-.02-.51-.12-1.11-.3s-1.24-.36-1.92-.54c-.68-.19-1.31-.36-1.9-.53-.59-.16-.93-.25-1.02-.25-.4,0-.71.12-.93.35-.22.23-.39.73-.51,1.48h-.88v-10.97h.88c.42,2.25.97,3.97,1.65,5.17.33.56.77,1.08,1.32,1.56.55.48,1.17.9,1.86,1.27.69.36,1.44.65,2.23.84.8.2,1.6.3,2.43.3.98,0,1.87-.14,2.65-.42.79-.28,1.45-.66,2-1.14.55-.48.97-1.04,1.27-1.67.29-.63.44-1.3.44-2,0-.8-.22-1.59-.65-2.39-.43-.8-1.17-1.58-2.2-2.36-1.01-.61-2.2-1.32-3.59-2.14-2.65-1.52-5-2.99-7.07-4.39-1.15-.91-2.02-1.92-2.62-3.01s-.9-2.3-.9-3.64c0-1.12.23-2.2.7-3.22.47-1.02,1.12-1.92,1.95-2.69.83-.77,1.82-1.38,2.97-1.83,1.15-.44,2.39-.67,3.73-.67,1.69,0,3.48.41,5.38,1.23.44.19.82.34,1.12.46.3.12.55.16.74.14.42,0,.76-.12,1.02-.35.26-.23.46-.73.6-1.48h.88Z"/>
        <path d="M199.31,191.64v.88h-13.68v-.88h1.12c.56,0,1.06-.04,1.49-.12.43-.08.79-.28,1.07-.6s.5-.8.65-1.44c.15-.64.23-1.52.23-2.62v-20.64c0-.73-.02-1.33-.05-1.81-.04-.48-.09-.87-.18-1.18-.08-.3-.21-.54-.37-.72-.16-.18-.39-.35-.67-.51-.7-.37-1.43-.56-2.18-.56h-1.12v-.88h13.68v.88h-1.12c-.56,0-1.06.05-1.49.14-.43.09-.79.3-1.07.62s-.5.8-.65,1.44c-.15.65-.23,1.51-.23,2.58v20.64c0,.75.01,1.36.04,1.83.02.47.08.86.18,1.16.09.3.23.54.4.72s.4.35.69.51c.66.38,1.37.56,2.14.56h1.12Z"/>
        <path d="M223.99,160.56h8.65l19.55,23.98v-18.42c0-1.08-.08-1.93-.23-2.57-.15-.63-.38-1.1-.67-1.41-.29-.3-.65-.5-1.07-.58-.42-.08-.9-.12-1.44-.12h-1.12v-.88h11.14v.88h-1.16c-.56,0-1.05.05-1.48.14-.42.09-.77.3-1.05.63-.28.33-.49.8-.63,1.41-.14.61-.21,1.44-.21,2.5v26.93h-.84l-21.06-25.73v19.69c0,1.1.08,1.96.23,2.58.15.62.37,1.08.65,1.39.28.3.63.49,1.05.56s.9.11,1.44.11h1.12v.88h-11.11v-.88h1.12c.56,0,1.05-.05,1.48-.14.42-.09.78-.3,1.07-.62.29-.32.51-.78.65-1.39.14-.61.21-1.44.21-2.5v-22.22c-.47-.56-.86-1.01-1.18-1.34-.32-.33-.62-.6-.9-.81s-.59-.39-.91-.53c-.33-.14-.74-.29-1.23-.46-.47-.14-1.16-.21-2.07-.21v-.88Z"/>
        <path d="M298.45,191.64v.88h-13.68v-.88h1.12c.56,0,1.06-.04,1.49-.12.43-.08.79-.28,1.07-.6s.5-.8.65-1.44c.15-.64.23-1.52.23-2.62v-20.64c0-.73-.02-1.33-.05-1.81-.04-.48-.09-.87-.18-1.18-.08-.3-.21-.54-.37-.72-.16-.18-.39-.35-.67-.51-.7-.37-1.43-.56-2.18-.56h-1.12v-.88h13.68v.88h-1.12c-.56,0-1.06.05-1.49.14-.43.09-.79.3-1.07.62s-.5.8-.65,1.44c-.15.65-.23,1.51-.23,2.58v20.64c0,.75.01,1.36.04,1.83.02.47.08.86.18,1.16.09.3.23.54.4.72s.4.35.69.51c.66.38,1.37.56,2.14.56h1.12Z"/>
        <path d="M350.8,160.56v7.52h-.53c-.26-2.02-.85-3.44-1.78-4.27-.93-.83-2.29-1.25-4.1-1.25h-4.5v24.43c0,1.08.08,1.93.23,2.55.15.62.37,1.08.65,1.39.28.3.63.5,1.05.58.42.08.91.12,1.48.12h1.09v.88h-13.54v-.88h1.12c.56,0,1.05-.05,1.48-.14.42-.09.77-.3,1.05-.62s.5-.78.65-1.39c.15-.61.23-1.44.23-2.5v-24.43h-3.83c-.96,0-1.81.08-2.55.23-.74.15-1.38.43-1.92.84-.54.41-.97.97-1.28,1.69-.32.72-.51,1.63-.58,2.76h-.88v-7.52h26.44Z"/>
        <path d="M396.78,160.56h11.14v.88h-.63c-.89,0-1.85.4-2.88,1.21-1.03.81-2.17,2.21-3.41,4.2l-7.7,12.13v8.02c0,1.08.08,1.93.23,2.55.15.62.37,1.08.67,1.39.29.3.66.5,1.09.58.43.08.93.12,1.49.12h1.02v.88h-13.57v-.88h1.16c.56,0,1.05-.05,1.48-.14.42-.09.77-.3,1.05-.62s.49-.78.63-1.39c.14-.61.21-1.44.21-2.5v-7.59l-8.75-13.36c-.54-.8-.98-1.44-1.32-1.92-.34-.48-.6-.83-.79-1.04-.09-.09-.25-.23-.47-.42-.22-.19-.5-.37-.83-.54-.33-.18-.69-.33-1.09-.47-.4-.14-.82-.21-1.27-.21v-.88h13.64v.88h-.7c-.35,0-.7.04-1.05.12-.35.08-.67.21-.95.37-.28.16-.51.38-.69.65-.18.27-.26.58-.26.93-.02.28.09.67.35,1.18.26.5.62,1.13,1.09,1.88l6.64,10.3,6.29-9.84c.89-1.43,1.36-2.53,1.41-3.3-.05-.33-.12-.63-.23-.91s-.28-.52-.53-.72c-.25-.2-.57-.36-.97-.47-.4-.12-.9-.18-1.51-.18v-.88Z"/>
      </g>
    </g>
  </g>
</svg>